<svg preserveAspectRatio="xMidYMid meet" data-bbox="23.887 29.187 152.227 141.627" viewBox="23.887 29.187 152.227 141.627" height="200" width="200" xmlns="http://www.w3.org/2000/svg" data-type="color" role="presentation" aria-hidden="true"><defs><style>#comp-jey8hje4 svg [data-color="1"] {fill: #FFFFFF;}
#comp-jey8hje4 svg [data-color="2"] {fill: #000000;}</style></defs>
    <g>
        <path d="M129.788 103.499c-.855 4.067-2.315 9.207-6.048 12.846-6.903 6.726-18.216 8.686-28.279 10-1.303.167-8.665.709-14.463 1.095-3.556.24-6.6.417-8.78.521-1.23.063-2.211.115-3.003.115-2.169 0-2.888-.365-3.086-1.846-.417-2.982-.959-6.079-1.491-9.082-2.085-11.918-4.244-24.243-.156-36.005 3.368-9.687 10.98-15.234 20.896-15.234h.052c4.755.01 8.978 2.044 11.387 6.225.949 1.637 1.574 3.431 2.044 5.255.772 3.066-.188 7.08 3.472 8.519 1.793.709 3.733.344 5.599.281 3.191-.094 5.068.605 7.581 1.168 5.787 1.303 13.003 5.161 14.317 11.762.281 1.418.26 2.889-.042 4.38z" fill="#FCFAFA" data-color="1"/>
        <path d="M120.574 100.413c1.214.224 2.23 1.174 2.23 2.063.001 3.524-1.093 6.769-3.498 9.287-1.757 1.84-4.151 3.28-6.988 4.174-.576.182-1.109.585-1.871.476a.261.261 0 0 1-.115-.038c-.042-.03-.053-.074-.058-.112-.106-.738.118-1.569.581-2.088.407-.456 1.053-.729 1.617-1.059 1.914-1.121 3.497-2.529 4.492-4.275 1.247-2.191 1.742-4.726 1.682-7.379-.019-.796.845-1.248 1.928-1.049z" fill="#1D1E21" data-color="2"/>
        <path d="M83.351 122.122c-.609.06-1.153-.346-1.201-.89-.177-1.994.044-4.052 1.031-5.855.229-.418.494-.823.807-1.196.251-.3.486-.827.923-.948.395-.109.574.362.617.624.21 1.285-.733 2.252-1.021 3.436-.302 1.245-.279 2.542-.165 3.801.047.517-.38.968-.959 1.025a1.84 1.84 0 0 0-.032.003z" fill="#1D1E21" data-color="2"/>
        <path d="M100.162 118.293c1.626-2.364 4.153-7.013 5.948-10.519.429-.838 1.43-1.487 2.254-1.466h.016c.839.021 1.608.868 1.172 1.721-1.412 2.764-4.573 7.799-6.718 10.911-.668.97-1.959 1.495-2.651 1.073-.503-.305-.505-1.016-.021-1.72z" fill="#1D1E21" data-color="2"/>
        <path d="M89.514 119.685c1.384-1.893 3.019-5.178 3.979-7.258a1.432 1.432 0 0 1 1.772-.744l.004.002a1.247 1.247 0 0 1 .707 1.72c-.873 1.9-2.579 5.416-4.235 7.695-.496.683-1.472.818-2.071.275a1.261 1.261 0 0 1-.156-1.69z" fill="#1D1E21" data-color="2"/>
        <path d="M23.96 92.598a1.5 1.5 0 0 1 1.018-1.905c2.996-.856 6.203-1.193 9.238-.411.704.181 1.397.416 2.056.725.529.248 1.401.404 1.709.959.279.502-.39.891-.779 1.03-1.903.682-3.649-.299-5.538-.323-1.988-.025-3.963.408-5.853.951a1.503 1.503 0 0 1-1.838-.985l-.013-.041z" fill="#1D1E21" data-color="2"/>
        <path d="M158.133 113.222c2.272-.112 6.425 1.544 7.208 1.837 4.012 1.501 7.794 3.589 10.773 6.715-1.28.756-2.058.113-2.838-.139-3.074-.99-6.139-2.007-9.205-3.019-1.776-.586-6.322-1.291-7.149-3.179-.693-1.58-.014-2.155 1.211-2.215z" fill="#1D1E21" data-color="2"/>
        <path d="M108.757 152.567c3.537-.883 5.764 13.116 5.555 15.439-.086.95-.471 1.873-.718 2.808l-.753-.753c-.304-.916-.571-1.846-.918-2.746-1.094-2.84-7.241-12.764-3.486-14.629a1.56 1.56 0 0 1 .32-.119z" fill="#1D1E21" data-color="2"/>
        <path d="M156.724 156.707c-4.961-1.792-9.521-4.427-12.545-7.602-1.398-1.468-2.711-3.022-3.621-4.86-.334-.675-.421-1.352.228-1.925.594-.525 1.201-.323 1.656.128 4.234 4.199 10.721 9.542 14.282 14.259z" fill="#1D1E21" data-color="2"/>
        <path d="M39.232 53.145c2.488.672 5.07 2.623 5.577 2.983 2.598 1.846 4.337 3.846 4.141 5.996-2.133-.11-2.266-.605-2.814-.948-2.16-1.352-4.282-2.712-6.41-4.07-1.233-.787-5.23-2.492-4.098-3.484.948-.83 2.262-.839 3.604-.477z" fill="#1D1E21" data-color="2"/>
        <path d="M109.018 29.24c4.656.449-1.199 16.34-2.845 18.749-.673.985-1.68 1.822-2.532 2.728l-.423-1.104c.199-1.102.448-2.205.588-3.307.44-3.478 1.224-13.299 4.767-17.064.108-.116.306-.016.445-.002z" fill="#1D1E21" data-color="2"/>
        <path d="M63.011 34.5c3.345 1.555 5.855 3.65 6.707 6.002.394 1.087.663 2.227.416 3.529-.091.478-.401.941-1.298 1.281-.822.312-1.242.134-1.385-.202-1.332-3.125-3.995-7.181-4.44-10.61z" fill="#1D1E21" data-color="2"/>
        <path d="M133.066 99.245c-1.391-6.99-9.032-11.075-15.161-12.455-2.661-.596-4.649-1.336-8.028-1.237-1.976.066-4.03.453-5.93-.298-3.876-1.524-2.86-5.775-3.677-9.021-.497-1.932-1.159-3.832-2.164-5.565-2.551-4.428-7.023-6.581-12.058-6.592h-.055c-10.501 0-18.562 5.874-22.128 16.132-4.328 12.455-2.043 25.507.166 38.128.563 3.18 1.137 6.46 1.579 9.618.21 1.568.972 1.954 3.268 1.954.839 0 1.877-.055 3.18-.122 2.308-.11 5.532-.298 9.297-.552 6.139-.409 13.935-.983 15.315-1.159 10.655-1.391 22.636-3.467 29.946-10.589 3.953-3.854 5.499-9.297 6.404-13.604.322-1.58.344-3.137.046-4.638zm-4.373 3.732c-.817 3.92-2.076 8.337-5.168 11.351-6.857 6.68-20.24 8.425-27.428 9.364-2.462.32-20.726 1.568-26.39 1.778-.397-2.628-.861-5.3-1.325-7.895-2.109-12.069-4.295-24.546-.342-35.908 2.948-8.502 9.33-13.173 17.954-13.173h.044c6.68.011 8.13 4.151 9.554 12.41.121.651.232 1.27.353 1.888.377 2.021.525 4.016.783 6.05.174 1.372.572 3.323 2.178 3.638 1.977.388 4.495-.897 6.411-1.309 1.197-.257 2.519-.682 3.754-.682 2.992-.099 5.576.099 7.873.618 2.518.563 5.245 1.667 7.453 3.202 2.197 1.546 3.887 3.511 4.339 5.797a7.176 7.176 0 0 1-.043 2.871z" fill="#1D1E21" data-color="2"/>
    </g>
</svg>