<svg preserveAspectRatio="xMidYMid meet" data-bbox="43.961 10.563 112.077 178.874" viewBox="43.961 10.563 112.077 178.874" height="200" width="200" xmlns="http://www.w3.org/2000/svg" data-type="color" role="presentation" aria-hidden="true"><defs><style>#comp-jey8ppbg svg [data-color="1"] {fill: #000000;}</style></defs>
    <g>
        <path d="M156 189.326a.194.194 0 0 1-.058.049c-.33.183-2.053-.046-2.053-.577.241-.359.723-.185 1.047-.064.16.06 1.053.308 1.098.456a.15.15 0 0 1-.034.136z" fill="#1D1E21" data-color="1"/>
        <path d="M74.082 10.591c.046.045.025.103.007.203a1.682 1.682 0 0 1-.225.574c-.115.192-.249.372-.382.552-.128.174-.264.663-.411.552a.996.996 0 0 1-.033-.533c.042-.222.143-.43.263-.621a2.85 2.85 0 0 0 .349-.751c.131-.007.262-.002.393-.002.017.008.03.017.039.026z" fill="#1D1E21" data-color="1"/>
        <path d="M123.491 175.687c.24-.559 1.175.323 1.66.568.063.032.113.213.079.279-.04.077-.214.17-.268.141-.482-.261-1.11-.322-1.471-.988z" fill="#1D1E21" data-color="1"/>
        <path d="M59.851 32.978c.444-.065-.542 1.325-1.093 1.703-.377.19.2-1.251 1.093-1.703z" fill="#1D1E21" data-color="1"/>
        <path d="M56.422 38.916c.37-.113-.772 2.098-.928 1.796.078-.89.378-1.406.928-1.796z" fill="#1D1E21" data-color="1"/>
        <path d="M131.336 179.413l-.004.007c-.111.209-.793-.005-.94-.064-.301-.121-.62-.33-.758-.637-.019-.042.152-.236.181-.224.22.084 1.74.471 1.521.918z" fill="#1D1E21" data-color="1"/>
        <path d="M72.222 113.069c-.003.027-.023.053-.046.071-.281.223-.785-.184-1.006-.348-.139-.103-.663-.459-.504-.67.048-.064.133-.09.213-.085a.61.61 0 0 1 .226.072c.242.118.464.274.666.452.152.133.282.296.42.443a.105.105 0 0 1 .03.045.046.046 0 0 1 .001.02z" fill="#1D1E21" data-color="1"/>
        <path d="M75.849 115.838c.234-.421 1.831.959 1.831 1.299-.202.313-1.299-.53-1.831-1.299z" fill="#1D1E21" data-color="1"/>
        <path d="M108.004 166.487c.146.362-1.138-.47-1.494-1.223 0-.582 1.282.554 1.494 1.223z" fill="#1D1E21" data-color="1"/>
        <path d="M56.139 101.213c-.727-.059-1.534-.962-1.534-1.228.081-.535 1.669.993 1.534 1.228z" fill="#1D1E21" data-color="1"/>
        <path d="M82.585 121.371c-.653-.199-1.679-1.117-1.432-1.379.213-.287 1.667 1.167 1.432 1.379z" fill="#1D1E21" data-color="1"/>
        <path d="M45.227 84.849c-.451-.494-.75-1.856-.502-1.79.345-.288.805 1.79.502 1.79z" fill="#1D1E21" data-color="1"/>
        <path d="M44.495 71.645c-.072-.6-.241-1.214.309-1.902.251 0-.045 2.077-.309 1.902z" fill="#1D1E21" data-color="1"/>
        <path d="M46.223 63.157c.42-.255-.129 1.852-.414 2.021-.487.083-.07-1.231.414-2.021z" fill="#1D1E21" data-color="1"/>
        <path d="M94.158 137.383c-.415 0-1.173-1.74-.803-1.74.36-.105 1.114 1.74.803 1.74z" fill="#1D1E21" data-color="1"/>
        <path d="M66.794 21.615c.416.064-.607 1.305-1.15 1.683-.527.088.294-1.225 1.15-1.683z" fill="#1D1E21" data-color="1"/>
        <path d="M96.005 141.926c.452-.245.986 1.856.611 1.856-.456.001-.764-1.198-.611-1.856z" fill="#1D1E21" data-color="1"/>
        <path d="M99.574 156.778c-.298.247-.746-1.092-.96-1.569-.028-.063.056-.234.131-.274.156-.082.296-.004.348.168.144.484.279.97.481 1.675z" fill="#1D1E21" data-color="1"/>
        <path d="M97.723 148.006c.337-.329.886 2.49.419 2.305-.503-.726-.662-1.315-.419-2.305z" fill="#1D1E21" data-color="1"/>
        <path d="M103.193 162.341c-.676 0-1.691-1.594-1.322-1.594.169-.428 1.679 1.293 1.322 1.594z" fill="#1D1E21" data-color="1"/>
        <path d="M111.893 169.118c.855.091 1.888.787 1.888 1.146 0 .383-2.307-.893-1.888-1.146z" fill="#1D1E21" data-color="1"/>
        <path d="M117.69 172.592v-.009c.589-.063 1.307.322 1.66.786.017.023-.143.245-.177.234-.401-.124-1.484-.474-1.483-1.011z" fill="#1D1E21" data-color="1"/>
        <path d="M135.508 181.316c0-.549 1.3.273 1.874.551.327.562-1.874-.281-1.874-.551z" fill="#1D1E21" data-color="1"/>
        <path d="M147.682 186.379c0-.24 2.106.281 1.945.601-.165.316-1.945-.188-1.945-.601z" fill="#1D1E21" data-color="1"/>
        <path d="M90.09 130.053c.135-.54 1.322 1.33 1.043 1.46-.693-.26-.925-.828-1.043-1.46z" fill="#1D1E21" data-color="1"/>
        <path d="M66.739 109.248c-.063.071-.089.153-.198.139-.311-.04-.588-.187-.832-.378-.21-.164-.688-.445-.44-.724.012-.013.025-.026.042-.03a.1.1 0 0 1 .054.008c.28.098.525.219.778.374.063.045.649.549.596.611z" fill="#1D1E21" data-color="1"/>
        <path d="M48.403 56.857c.511-.158-.847 2.632-.827 2.231-.078-.997.054-1.572.827-2.231z" fill="#1D1E21" data-color="1"/>
        <path d="M50.092 52.731c-.166-.137-.218-.371-.19-.576.01-.076.113-.675.202-.675.077-.155.173-.299.285-.432.104-.124.228-.147.363-.046.016.012.032.027.036.046.005.021-.003.042-.011.062l-.346.849c-.085.208-.141.649-.339.772z" fill="#1D1E21" data-color="1"/>
        <path d="M61.93 29.204c.223-.952.932-2.346 1.128-2.021-.097 1.025-1.057 2.257-1.128 2.021z" fill="#1D1E21" data-color="1"/>
        <path d="M87.176 126.114c-.334.313-1.062-.604-1.343-1.402.385-.451 1.343 1.181 1.343 1.402z" fill="#1D1E21" data-color="1"/>
        <path d="M61.23 105.49c-.164.222-1.138-.45-1.502-1.132.001-.575 1.62.909 1.502 1.132z" fill="#1D1E21" data-color="1"/>
        <path d="M50.322 94.959c.194-.213 1.752 1.256 1.483 1.502-.934-.229-1.719-1.359-1.483-1.502z" fill="#1D1E21" data-color="1"/>
        <path d="M44.094 78.496c-.167-.801-.224-1.37.114-1.918.216-.291.205 2.157-.114 1.918z" fill="#1D1E21" data-color="1"/>
        <path d="M143.616 184.739c.504.45-2.257-.406-1.964-.71.939-.21 1.097-.154 1.964.71z" fill="#1D1E21" data-color="1"/>
        <path d="M53.417 44.712c.364.28-.934 2.327-.934 1.977-.216-.392.734-2.232.934-1.977z" fill="#1D1E21" data-color="1"/>
        <path d="M46.94 89.432c.163-.31 1.128 1.412.864 1.732-.182.154-.876-1.067-.864-1.732z" fill="#1D1E21" data-color="1"/>
        <path d="M70.249 16.276c.226.21-.724 1.634-.933 1.448.028-.684.713-1.448.933-1.448z" fill="#1D1E21" data-color="1"/>
    </g>
</svg>