<svg preserveAspectRatio="xMidYMid meet" data-bbox="15.897 59.612 168.201 80.774" viewBox="15.897 59.612 168.201 80.774" height="200" width="200" xmlns="http://www.w3.org/2000/svg" data-type="color" role="presentation" aria-hidden="true"><defs><style>#comp-jey8nx66 svg [data-color="1"] {fill: #FFFFFF;}
#comp-jey8nx66 svg [data-color="2"] {fill: #000000;}</style></defs>
    <g>
        <path d="M179.506 62.053c-8.872-.269-17.636-.542-26.507-.796-12.57-.356-25.173-.787-37.747-.917-23.625-.255-47.182-.353-70.807-.521-1.717-.01-2.704.422-3.045 2.004-.505 2.351-1.02 4.707-1.463 7.073-.216 1.173-.47 2.378-.681 3.546-.096.548-.159 1.01-.24 1.563-.082.567-.281 1.091-.04 1.663.221.529.718.785 1.242.982.183.072 2.139.184 2.144.14-.567 5.314-1.19 11.101-1.743 16.289-1.476.101-3.086-.155-4.187.321-5.27 2.27-10.499 4.506-15.548 7.213-2.51 1.346-2.586 3.374-1.182 5.85.139.24.109.719.08 1.022-.442 5.092-.72 10.199-1.403 15.267-.289 2.164-.601 4.648-1.182 6.632-.581 1.982-1.218 3.728-1.122 5.81.005.091.031.219.06.301.043.111.24.281.24.281.635.664 1.344 1.288 2.344.942.928-.322 1.284-1.447 1.563-2.284 1.731-5.184 1.543-10.407 1.783-15.768.154-3.457 1.123-7.045 1.863-10.459.139-.63 1.079-1.689 1.603-1.703 4.371-.125 9.285-.1 13.684-.1 0 4.549-.297 9.142-.22 13.364.034 1.904.24 3.684.601 5.55.106.572.764 1.176 1.302 1.162.601-.014 1.27-.501 1.463-1.102.332-1.024.296-2.175.301-3.286.024-4.934-.14-10.422-.14-15.668 36.541.817 73.483 1.967 109.351 2.77-.423 5.693-.953 11.36-1.232 16.755-.188 3.679-.138 7.472-1.758 10.925-.664 1.414-.872 2.559 1.037 3.141 1.851.567 2.806-.343 3.081-1.969.707-4.159 1.113-8.28 1.503-12.487.337-3.64.23-7.795.571-11.435.25-2.678 1.217-4.682 4.463-5.485 2.722-.673 5.734-2.379 8.701-3.697-.135 2.948-.384 5.94-.225 8.46.346 5.395.798 10.768 1.428 16.139.163 1.399.75 2.399 2.509 1.908 1.77-.495.804-1.659.736-2.765-.418-6.703-.903-13.418-1.292-20.121-.192-3.376.627-6.389 4.373-7.784.62-.231.769-.985.842-1.548.067-.548.077-1.09-.12-1.638-.245-.692-.881-.885-1.473-1.217-.385-.216-1.145-.171-2.179-.421 1.226-4.934 2.503-10.141 3.787-14.892.12-.447 1.399-1.009 1.923-.947 1.64.192 1.816-.57 2.134-1.878.928-3.808 2.065-7.497 2.93-11.315.896-3.964.068-4.74-4.106-4.87zm-9.777 33.991c-41.493-.817-83.777-1.933-125.905-2.765.721-5.275 1.479-10.528 2.244-15.307.077-.466 1.297-1.167 1.883-1.162 9.93.087 19.964.162 29.893.441 9.521.269 18.93.651 28.451 1.002 11.526.423 23.131.934 34.662 1.242 9.362.25 18.688.393 28.05.561 1.015.014 2.464.063 3.647.12-1.024 5.144-1.93 10.871-2.925 15.868z" fill="#FCFAFA" data-color="1"/>
        <path d="M179.625 61.862c-8.872-.269-17.744-.567-26.616-.822-12.57-.356-25.139-.856-37.714-.986-23.625-.255-47.254-.274-70.879-.442-1.717-.01-2.919.601-3.26 2.183a272.472 272.472 0 0 0-1.414 7.078c-.216 1.173-.428 2.347-.64 3.515-.096.548-.207 1.096-.289 1.649-.082.567-.351 1.13-.111 1.702.221.529.87.947 1.395 1.144.183.072 1.914.274 1.919.231-.567 5.313-1.116 10.502-1.669 15.69-1.476.101-2.89-.149-3.991.327-5.27 2.27-10.574 4.515-15.623 7.223-2.51 1.346-2.616 3.703-1.212 6.179.139.24.12.601.091.904-.442 5.092-.731 10.209-1.414 15.277-.29 2.167-.766 4.303-1.264 6.43-.472 2.011-1.123 3.996-1.027 6.08a.865.865 0 0 0 .04.263c.04.111.12.202.202.287.635.667 1.688 1.555 2.685 1.21.93-.322 1.373-1.524 1.653-2.364 1.731-5.184 1.5-10.56 1.741-15.921.154-3.457 1.116-6.896 1.856-10.31.139-.63.952-1.577 1.476-1.592 4.371-.125 8.752.14 13.151.14 0 4.549-.053 8.564.024 12.786.034 1.904.212 3.828.572 5.693.106.572 1.039 1.375 1.577 1.361.601-.014 1.505-.731 1.697-1.332.332-1.024.269-2.193.274-3.304.024-4.934.01-9.872.01-15.118 36.541.817 72.769 1.63 108.636 2.433-.423 5.693-.914 11.079-1.193 16.474-.188 3.679-.144 7.348-1.765 10.8-.664 1.414-.659 2.914 1.25 3.496 1.851.567 3.164-.433 3.438-2.058.707-4.159 1.202-8.362 1.592-12.57.337-3.64.298-7.319.64-10.959.25-2.678 1.072-4.886 4.318-5.689 2.722-.673 5.232-2.217 8.199-3.534-.135 2.948-.481 5.496-.322 8.016.346 5.395.875 10.781 1.505 16.152.163 1.399 1.13 2.582 2.89 2.092 1.77-.495.981-1.899.914-3.005-.418-6.703-.88-13.406-1.269-20.11-.192-3.376.452-6.237 4.198-7.631.616-.229.749-1.095.819-1.657.068-.547.187-1.18-.008-1.727-.245-.691-.976-.967-1.566-1.299-.385-.216-.88-.236-1.914-.486 1.226-4.934 2.371-9.718 3.655-14.469.12-.447 1.12-.995 1.645-.933 1.64.192 2.087-.697 2.404-2.005.928-3.808 1.981-7.583 2.847-11.401.901-3.961.021-4.961-4.153-5.091zm-137.973.625c.284-.784.702-1.625 1.529-1.899 1.14-.38 2.481-.091 3.659-.091 16.181.01 32.362-.183 48.538.063 24.745.365 49.49 1.005 74.23 1.592 2.14.048 11.478.245 12.122.779.356.303.24.967.183 1.135-.76 2.246-1.015 3.933-2.048 6.078-.423.875-1.798.606-2.746.582-7.28-.202-14.56-.481-21.841-.721-.264-.01-9.757-.269-14.859-.298-32.92-.76-65.839-1.524-98.759-2.289-.539-.01-.87-.168-.947-.76-.085-.665.708-3.531.939-4.171zm3.313 16.683c.043 1.644-.046 3.288-.212 4.923-.163 1.598-.711 5.728-.754 6.205-.062.681-.114 1.45-.524 2.026-.424.595-1.023.478-1.667.462a.758.758 0 0 1-.33-.066c-.512-.27-.187-1.248-.084-1.656.199-.786 1.039-5.316 1.286-6.794.389-1.632 1.474-3.631 2.285-5.1zm1.313-.886c.077-.466 1.111-1.125 1.697-1.12 9.93.087 19.869.164 29.799.442 9.521.269 19.037.803 28.558 1.154 11.526.423 23.052.837 34.583 1.144 9.362.25 18.73.337 28.092.505 1.015.014 2.029.096 3.212.154-1.024 5.145-2.005 10.055-3.001 15.051-41.493-.817-82.877-1.846-125.005-2.678.723-5.275 1.301-9.873 2.065-14.652zM30.852 97.153c9.612.043 19.22.313 28.828.414 11.767.12 23.543.067 35.31.245 9.127.139 18.253.452 27.375.803 7.987.308 15.969.88 23.956 1.149 6.468.216 12.945.144 19.417.236.536.008 1.07.06 1.606.077.42.014 1.12-.043 1.408.343.343.46-.206.882-.601 1.019-.594.205-1.183.41-1.778.618-1.036.363-2.14.671-3.247.669-7.285-.01-14.57-.337-21.855-.572-12.877-.418-25.755-.942-38.637-1.269-20.095-.505-40.195-.909-60.29-1.303-3.268-.064-6.532-.252-9.798-.386-1.1-.045-2.2-.091-3.3-.119-.457-.012-2.433.185-2.698-.103-.233-.253.146-.661.34-.809.266-.203.593-.313.905-.426.968-.351 2.027-.586 3.059-.586zm-5.703 2.409c4.145.284 8.285.741 12.435.817 17.85.322 35.699.447 53.549.808 11.517.231 23.024.769 34.535 1.13 7.261.226 31.638.891 32.86.976.61.043 3.334-.099 3.757.06.282.106.082.358-.12.601-.698.842-2.518 1.248-3.534 1.457-1.241.255-2.566.328-3.832.282-6.549-.24-13.103-.322-19.658-.51-11.67-.332-23.341-.774-35.011-1.029-8.001-.173-16.008.038-24-.183-16.397-.447-32.785-1.077-49.178-1.616-1.15-.038-2.3-.007-3.451-.014-.529-.003-1.054-.026-1.581-.039-.497-.012-1.385-.026-1.685-.507-.369-.59 1.057-1.193 1.411-1.356.978-.45 2.004-.877 3.096-.889.136-.001.272.002.407.012zm-4.943 32.554c-.082.891-.356 2.245-.887 2.974-.317.435-1.046 1.007-1.861.335-.844-.696-.326-2.701-.123-3.461.35-1.309.555-2.851.721-4.208.563-4.587 1.568-8.403 2.073-13 .101-.899.476-1.223.86-2.093l1.335-1.977c-.553 6.559-1.517 14.876-2.118 21.43zm21.276-6.397c-1.906 1.063-1.738-3.222-1.847-3.973-.218-1.513.03-2.734.075-4.257.047-1.564.209-3.134.551-4.662.15-.669.332-1.334.577-1.975.135-.352.699-1.102.699-1.428 0 4.288.382 7.493.382 11.781 0 .795.082 1.59.11 2.385.021.601.088 1.767-.534 2.121a.091.091 0 0 1-.013.008zm111.888 6.57a22.076 22.076 0 0 1-.836 4.68c-.296 1.001-.694 2.794-2.099 2.546-.719-.127-1.499-.992-1.195-1.75 2.544-6.328 1.687-12.807 2.74-19.315.413-2.552 1.058-4.871 2.626-6.352-.389 6.535-.755 13.368-1.236 20.191zm3.208-23.735c-3.366.063-6.732.063-10.098-.01-4.962-.101-9.93-.327-14.892-.414-12.171-.212-24.346-.284-36.517-.577-15.046-.361-30.083-.909-45.124-1.332-7.915-.221-15.835-.322-23.75-.543-1.139-.032-4.316-.319-5.139-.342-.342-.01-1.227-.1-1.424-.435-.26-.443-.483-1.588-.12-1.883.501-.408 1.479-.162 2.082-.162 7.833.356 15.671.683 23.509.909 8.482.25 16.965.404 25.452.548 10.882.188 21.773.212 32.65.51 11.68.322 23.346.914 35.021 1.303 4.906.164 17.235.392 18.47.582.418.056.999.429 1.135.856.203.632-.774.981-1.255.99zm2.559-.797c-.263-.182-.421-.763-.389-1.039.051-.447.479-.719.843-.909.601-.314 1.251-.539 1.888-.768.498-.179.993-.368 1.485-.562.296-.116 1.062-.604 1.374-.397a.312.312 0 0 1 .095.109c.599 1.026-1.467 2.096-2.112 2.443-.878.472-2.008 1.101-3.029 1.167a.191.191 0 0 1-.089-.009.263.263 0 0 1-.066-.035zm6.592-2.723c-1.791-.975 4.685-4.641 5.499-3.771 1.049 1.204-5.352 4.239-5.499 3.771zm6.334 25.564a.521.521 0 0 1-.219.155c-.32.12-.795.061-1.097-.092a1.134 1.134 0 0 1-.396-.374c-.634-.895-.633-2.028-.738-3.076-.144-1.443-.304-2.899-.542-4.329a38.202 38.202 0 0 1-.236-5.411c.057-2.46.28-5.018 1.093-7.357a9.55 9.55 0 0 1 .456-1.103c-.065.132.044.539.057.692l.067.818.13 1.574.26 3.156.523 6.346c.136 1.648.275 3.297.433 4.943.075.782.132 1.575.268 2.348.086.494.304 1.275-.059 1.71zm4.302-31.382c-.285.684-.922 1.098-1.556 1.424-.574.294-1.147.588-1.715.895-.077.041-.159.084-.246.078-.106-.007-.192-.084-.269-.159-.32-.311-.688-.585-.395-1.039.198-.306.576-.498.884-.672.478-.27.959-.535 1.45-.781.346-.173.976-.562 1.365-.315.101.062.537.438.482.569zm-1.395-2.123c.237.223.344.624.075.87-.113.103-.258.161-.401.215-.58.219-1.18.384-1.754.618-.798.318-1.641.599-2.511.579-15.359-.346-30.713-.866-46.066-1.351-4.318-.139-8.636-.418-12.954-.476-15.763-.212-31.53-.322-47.293-.539-8.963-.125-17.926-.394-26.894-.582-.879-.017-1.757-.025-2.636-.024-.463 0-2.074.139-2.348.01-.284-.133-.37-.518-.206-.775.1-.156.273-.251.449-.309.261-.086 4.303-1.489 5.361-1.484 9.521.038 19.037.385 28.553.606 5.424.125 10.848.207 16.272.322 9.819.207 19.634.452 29.457.635 6.554.12 13.113.101 19.667.24 8.554.183 17.109.442 25.663.707 4.99.155 9.979.359 14.967.552l1.422.055c.462.017.91-.12 1.177.131zm-2.556-1.489c-.357.444-1.189.156-1.598-.058-.457-.239-.444-.573-.335-1.025.101-.417.204-.834.308-1.251.349-1.391.685-2.781 1.022-4.174.315-1.305.672-2.704 1.37-3.866a11.218 11.218 0 0 1 1.58-2.264c.109-.12.22-.239.334-.354.072-.073.337-.253.357-.347-.69 3.17-1.413 6.333-2.15 9.493-.251 1.075-.554 2.166-.701 3.259-.025.185-.048.378-.149.535a.78.78 0 0 1-.038.052zm5.495-17.263c-.342.653-1.197.947-1.842.962-8.006.149-16.017.418-24.024.245-10.641-.231-21.278-.885-31.919-1.25-19.278-.673-38.56-1.294-57.838-1.875-6.804-.207-13.623-.014-20.427-.058-.971-.01-2.34-.216-2.605-1.302-.163-.683.484-4.006.624-4.829 0-.957 1.068-2.02 1.991-2.024 1.5-.005 3.005.048 4.506.072 5.006.082 10.012.159 15.012.24 5.006.082 10.012.159 15.017.24 5.006.077 10.012.159 15.017.24 5.006.077 10.016.308 15.022.389 5.006.082 9.992.221 14.998.298 5.006.082 10.084.255 15.089.332 2.145.034 6.429.136 6.429.136 7.588.293 19.686.594 22.451.715 2.438 0 4.895.212 7.333.313l3.674.159c.625.029 1.25.053 1.875.082.284.014 1.164.091 1.356.418.034.053.101.22.096.283-.048.365-.12.646-.216 1.006-.173.606-.361 1.212-.534 1.818-.321 1.145-.534 2.336-1.085 3.39zm2.981-2.721c-.26.765-.405 1.759-.694 2.519-.139.356-.388 1.16-1.009.838-.486-.255-.125-.933-.043-1.308.144-.678.298-1.346.462-2.02a241.71 241.71 0 0 1 1.01-4.092c.26.063 1.004.343 1.263.406 0-.001-.883 3.344-.989 3.657zm1.212-4.636c-.433-.125-.861-.245-1.294-.37.385-1.361 1.51-5.847 1.688-6.092.173-.236.851-.154.942.173.183.639-1.336 6.289-1.336 6.289z" fill="#1D1E21" data-color="2"/>
    </g>
</svg>