<svg preserveAspectRatio="xMidYMid meet" data-bbox="68.676 25.703 62.649 148.593" viewBox="68.676 25.703 62.649 148.593" height="100" width="100" xmlns="http://www.w3.org/2000/svg" data-type="color" role="presentation" aria-hidden="true"><defs><style>#comp-jey7kteo svg [data-color="1"] {fill: #000000;}</style></defs>
    <g>
        <path d="M69.67 36.232c2.606-2.762 9.521-5.569 10.803-6.122 6.565-2.831 13.532-4.69 20.733-4.371-.667 2.39-2.348 2.515-3.577 3.115-4.845 2.362-9.711 4.681-14.573 7.007-2.816 1.347-9.104 5.755-12.282 4.438-2.662-1.101-2.509-2.577-1.104-4.067z" fill="#1D1E21" data-color="1"/>
        <path d="M69.434 158.468c3.132-5.217 22.284 8.677 24.778 11.666 1.02 1.222 1.654 2.766 2.466 4.162h-1.776c-1.44-.723-2.853-1.505-4.324-2.158-4.643-2.062-23.611-6.518-21.381-13.151.065-.191.144-.363.237-.519z" fill="#1D1E21" data-color="1"/>
        <path d="M131.325 96.116c-7.971 3.741-16.462 6.012-23.779 5.835-3.383-.082-6.766-.367-10.01-1.462-1.191-.402-2.092-1.099-2.003-2.541.082-1.321 1.037-1.799 2.105-1.804 9.952-.042 23.916-1.393 33.687-.028z" fill="#1D1E21" data-color="1"/>
    </g>
</svg>