<svg preserveAspectRatio="xMidYMid meet" data-bbox="85.697 14.514 28.606 170.975" viewBox="85.697 14.514 28.606 170.975" height="200" width="200" xmlns="http://www.w3.org/2000/svg" data-type="color" role="presentation" aria-hidden="true"><defs><style>#comp-jey8ltdw svg [data-color="1"] {fill: #FFFFFF;}
#comp-jey8ltdw svg [data-color="2"] {fill: #000000;}</style></defs>
    <g>
        <path d="M110.936 37.56c-.605.827-1.368 1.434-2.102 2.021-.666.528-1.291 1.027-1.816 1.676-2.562 3.156-4.667 6.894-5.652 10.549 0 0 .28.153.28.157.722.353.884.504.856 1.136-.028.703-.282.948-.475 1.089a2.309 2.309 0 0 1-.52.295c.008.042-.132.094-.14.136-.02.158-.077.296-.105.454-.061.32-.157.631-.157.926.012 4.366-.267 8.784-.384 13.071-.121 4.366-.142 8.893-.122 13.333.028 7.285-.18 14.679-.297 21.843-.133 8.166-.788 16.745-.301 25.006.129 2.192-.15 4.347-.275 6.501-.052.944-.064 3.355-.105 4.299.646.15 1.274.164 1.573.734.484.931.185 1.157-.275 1.581-.073.062-.853.712-.917.778 1.412 2.615 2.426 4.452 2.451 7.392.044 5.372.214 10.814.21 16.094-.004 4.532.012 10.572.04 15.175.008 1.771-.757 2.135-2.032 2.754-.847.408-1.625.419-2.411.419-.908 0-2.322-.247-3.198-.472-1.033-.27-1.524-1.493-2.126-2.499-.274-.462-.488-.89-.516-1.43-.29-5.418-.173-10.914-.061-16.228.032-1.538.065-3.081.085-4.619.036-2.358.081-4.861.21-7.31.186-3.422.746-5.848 2.303-9.224-.282-.374-.286-1.814-.262-2.359.04-.861.387-.463.944-.891.137-.104.423-1.567.577-1.625.004-.012-.109-.407-.105-.419.226-.686-.156-5.26-.152-9.198.004-4.453.462-9.078.676-11.876.274-3.622.133-7.303.105-10.904-.016-2.395-.374-4.89-.301-7.326.073-2.582.004-5.222-.061-7.775-.044-1.805-.093-3.667-.089-5.505V84.12c.004-4.935.008-10.037.226-15.051.206-4.723.073-9.584-.04-13.875a1.488 1.488 0 0 1 .024-.328c-.048-.029-.065-.042-.101-.054a3.808 3.808 0 0 0-.428-.125 3.714 3.714 0 0 1-.698-.233c-.436-.216-.714-.624-.775-1.152-.04-.345-.079-.605.494-1.112.165-.146.407-.345.577-.437-.351-3.322-1.995-6.609-3.609-9.606l-.044-.079c-.145-.262-.258-.541-.408-.802-.153-.262-.323-.524-.46-.798-.149-.27-.303-.536-.541-.74-4.281-3.663-5.128-11.268-3.272-16.295 1.444-3.925 5.078-6.805 9.452-8.044 4.261-1.214 8.043-.626 11.376 2.097 6.062 4.951 7.543 13.725 2.874 20.074z" fill="#FCFAFA" data-color="1"/>
        <path d="M108.707 17.428c-3.464-2.747-7.813-3.59-12.242-2.365-4.546 1.25-8.304 4.487-9.805 8.447-1.926 5.067-1.047 12.74 3.404 16.435.245.203.404.474.563.744.139.277.318.541.475.808.155.263.276.543.423.81l.046.08c1.678 3.024 3.267 5.88 3.632 9.231a2.828 2.828 0 0 0-.541.344c-.596.512-.495 1.329-.453 1.678.063.533.352.944.805 1.162.243.113.491.176.726.235.159.038.306.075.445.126.038.013.056.026.106.055a1.51 1.51 0 0 0-.027.331c.117 4.328.256 9.231.042 13.995-.226 5.058-.231 10.204-.235 15.182v1.208c-.004 1.854.046 3.733.092 5.553.067 2.575.138 5.238.063 7.843-.075 2.458-.054 4.953-.038 7.369.029 3.632.055 7.385-.231 11.038-.222 2.822-.226 7.469-.231 11.961-.004 3.972-.008 8.916-.243 9.608l-.013.034a1.896 1.896 0 0 0-.457.247c-.579.432-.96 1.233-1.002 2.101-.025.549.117 1.044.411 1.422-1.619 3.405-1.938 7.058-2.13 10.51-.134 2.47-.18 4.995-.218 7.373-.021 1.552-.055 3.108-.088 4.659-.117 5.36-.239 10.904.063 16.369.03.542.252.976.536 1.439.626 1.018 1.884 1.286 2.96 1.556.911.229 1.842.473 2.786.473a5.88 5.88 0 0 0 2.537-.57c1.325-.625 2.147-1.371 2.139-3.158-.029-4.643-.029-9.369-.025-13.941.004-5.326.004-10.837-.042-16.256-.025-2.965-.78-5.804-2.248-8.442.067-.067.143-.134.218-.197.478-.428 1.204-1.069.7-2.009-.31-.575-.893-1.095-1.564-1.246a211.2 211.2 0 0 1 .151-2.864c.13-2.172.26-4.416.235-6.631-.088-8.379.05-16.897.189-25.134.122-7.226.243-14.695.214-22.043-.021-4.479.109-9.034.235-13.437.122-4.324.247-8.79.235-13.194 0-.298.055-.604.117-.927.029-.159.059-.323.08-.482a.334.334 0 0 0-.004-.126 2.43 2.43 0 0 0 .541-.298c.201-.143.809-.579.839-1.288.029-.641-.381-1.182-1.13-1.538-.001-.001-.002-.002-.001-.003 1.023-3.686 2.818-7.032 5.481-10.214.545-.654 1.195-1.158 1.887-1.69.763-.591 1.556-1.204 2.185-2.038 4.851-6.407 3.711-15.34-2.593-20.335zm-6.605 134.142c.046 5.414.046 10.921.042 16.247-.004 4.571-.004 9.298.025 13.949.004 1.233-.382 1.791-1.657 2.391-1.192.561-2.491.588-3.756.287-.445-.106-.891-.213-1.309-.405a5.278 5.278 0 0 1-.881-.514c-.24-.173-.513-.364-.635-.644a2.7 2.7 0 0 1-.204-.955c-.298-5.402-.18-10.913-.067-16.239.038-1.556.071-3.116.092-4.672.038-2.458.084-4.865.218-7.306.18-3.28.478-6.748 1.963-9.877.226-.038 1.147-.214 1.701-.239.571-.025 1.145.032 1.714-.041.192-.025.382-.06.569-.11 1.426 2.542 2.16 5.272 2.185 8.128zm-1.229-10.263c.164.31.029.499-.52.986-.092.084-.193.168-.281.256-.062.021-.21.058-.264.075-.684.231-1.3.152-2.051.127a78.647 78.647 0 0 1-.457-.013c-.393.039-.406-.011-.591-.006-.235.004-.379-.015-.591-.038a1.1 1.1 0 0 1-.638-.279c-.147-.138-.222-.382-.21-.675.021-.482.222-.944.495-1.145.151-.113.149-.175.452-.213l.152-.008c.221-.008.432.053.563.061.767.159 1.61.235 2.567.038.606-.122 1.164.449 1.374.834zm-.407-84.943c.013 4.391-.113 8.853-.235 13.173-.126 4.408-.256 8.967-.235 13.458.029 7.344-.092 14.809-.214 22.026-.138 8.245-.277 16.771-.189 25.159.025 2.185-.105 4.416-.231 6.572-.055.973-.113 1.946-.155 2.919-.726.134-1.471.088-2.163-.05.239-1.09.356-3.942.36-9.923.004-4.257.008-9.076.226-11.835.289-3.724.264-7.516.235-11.181-.017-2.399-.262-4.254-.187-6.682.076-2.651-.09-5.912-.157-8.512-.046-1.803-.096-3.737-.092-5.57l-.013-1.193c.004-4.957-.065-10.126.157-15.151.223-4.919-.204-9.86-.316-14.281.486-.168 1.681-.162 2.252-.175.37-.004.753-.008 1.127-.063-.07.421-.17.853-.17 1.309zm1.575-3.158c-.024.236-.237.461-.489.641-.57.407-1.292.419-2.059.432a9.454 9.454 0 0 0-1.141.066c-.909.126-2.019.088-2.875-.268-.239-.099-.404-.278-.438-.541-.063-.512-.013-.784.168-.939.202-.174.332-.188.559-.29.311-.14.661-.111.992-.081.318.029.637.071.957.036.315-.034.639-.053.957-.076.684-.05 1.329-.096 1.95.034.407.085.853.247 1.177.512.191.157.258.318.242.474zm4.54-12.255c-2.726 3.263-4.571 6.693-5.628 10.485-.05-.013-.105-.025-.159-.038-.734-.151-1.468-.101-2.181-.05-.128.01-.259.018-.388.024l-.472.041c-.393.048-.659.082-.885.01-.046-.015-.099-.753-.114-.842a13.262 13.262 0 0 0-.153-.79 10.92 10.92 0 0 0-.406-1.373c-.304-.819-.718-1.588-1.164-2.337-.912-1.535-1.815-3.07-2.789-4.566-.24-.368-.45-.755-.71-1.112a.054.054 0 0 1 .022-.081c4.919-2.109 10.643-2.088 15.376.247a5.769 5.769 0 0 0-.349.382zm4.051-3.695c-.566.742-1.279 1.296-2.034 1.879-.356.277-.717.558-1.069.864a.43.43 0 0 0-.176-.159c-5.096-2.525-10.367-2.6-15.664-.214a.235.235 0 0 0-.063.038h-.004c-.093.038-.294.23-.457.034-4.504-3.322-5.595-10.955-3.72-15.891 1.409-3.712 4.949-6.756 9.243-7.939 4.165-1.145 8.249-.361 11.5 2.214 5.942 4.714 7.015 13.135 2.444 19.174z" fill="#1D1E21" data-color="2"/>
        <path d="M91.638 38.545l-.035.002c-.195.011-.493-.016-.57-.236-.205-.587.933-.719 1.256-.793.578-.132 1.147-.322 1.731-.423.609-.11 1.221-.209 1.834-.294 1.293-.18 2.599-.289 3.905-.254 1.495.039 2.984.273 4.4.758.219.075.603.457.528.676-.075.219-.58.192-.8.117-2.556-.876-5.29-.831-7.935-.463-.759.106-1.512.253-2.26.423-.667.152-1.371.44-2.054.487z" fill="#1D1E21" data-color="2"/>
        <path d="M88.086 33.927c-.176 0-.483-.034-.542-.21-.073-.22.189-.534.409-.608 2.362-.789 4.855-1.112 7.34-1.112.802 0 1.792-.137 2.458.424.065.055.13.139.098.217a.199.199 0 0 1-.075.08c-.243.163-.618.17-.901.159-3.254-.165-6.082.17-8.653 1.028a.458.458 0 0 1-.134.022z" fill="#1D1E21" data-color="2"/>
        <path d="M88.161 29.628c-.207.062-.388.055-.442-.133-.036-.125-.087-.412.301-.628 1.498-.831 3.317-.834 5.304-.72.116.007.441.108.441.24 0 .339-.306.344-.437.339-.99-.058-1.988-.02-2.968.161a8.636 8.636 0 0 0-1.453.396c-.129.048-.463.26-.746.345z" fill="#1D1E21" data-color="2"/>
        <path d="M97.253 44.223a.21.21 0 0 1-.192-.125c-.528-1.195-1.161-2.147-1.934-2.912-.082-.082-.309-.472-.227-.554.082-.083.44.175.522.256.811.802 1.472 1.796 2.022 3.04a.21.21 0 0 1-.191.295z" fill="#1D1E21" data-color="2"/>
        <path d="M88.086 27.251c-.088 0-.362.05-.392-.07-.036-.15.215-.437.325-.487.803-.365 1.683-.507 2.69-.438.116.008.81.089.749.348-.07.297-.639.235-.77.223-.953-.067-1.784.067-2.536.409a.158.158 0 0 1-.066.015z" fill="#1D1E21" data-color="2"/>
        <path d="M88.085 31.816c-.116 0-.233-.008-.353-.024a.522.522 0 0 1-.291-.114c-.319-.295.35-.65.585-.683 2.659-.378 5.017-.517 7.207-.423.231.01.956.149.961.471.004.315-.763.377-.997.367a32.292 32.292 0 0 0-3.681.055c-.673.046-1.346.108-2.016.186-.484.055-.939.167-1.415.165z" fill="#1D1E21" data-color="2"/>
        <path d="M89.763 36.443c-.179 0-.556-.048-.612-.227-.069-.221.266-.524.487-.593 4.03-1.253 7.427-1.523 10.694-.849.227.047.748.428.702.655-.047.226-.642.214-.871.166-3.121-.644-6.386-.38-10.276.829a.41.41 0 0 1-.124.019z" fill="#1D1E21" data-color="2"/>
        <path d="M97.941 50.283a.418.418 0 0 1-.394-.277 41.995 41.995 0 0 1-.686-2.137c-.72-2.387-1.399-4.642-3.38-6.28-.179-.148-.51-.721-.362-.9.147-.178.717.106.896.253 2.176 1.799 2.925 4.283 3.649 6.684.209.694.426 1.411.672 2.094a.42.42 0 0 1-.395.563z" fill="#1D1E21" data-color="2"/>
    </g>
</svg>