<svg preserveAspectRatio="xMidYMid meet" data-bbox="33.369 44.537 118.371 110.926" viewBox="33.369 44.537 118.371 110.926" height="200" width="200" xmlns="http://www.w3.org/2000/svg" data-type="color" role="presentation" aria-hidden="true"><defs><style>#comp-jey8fixr svg [data-color="1"] {fill: #FFFFFF;}
#comp-jey8fixr svg [data-color="2"] {fill: #000000;}</style></defs>
    <g>
        <path d="M128.401 141.07c-9.252 5.807-21.462 12.183-36.223 12.183-2.035 0-4.097-.108-6.241-.38-22.303-2.713-36.874-11.369-44.525-26.428-8.276-16.28-6.566-33.591 4.911-50.006 6.593-9.415 15.792-16.28 26.021-21.272 8.276-4.043 16.307-6.485 25.587-5.644 9.117.841 17.826 4.07 25.098 9.714 9.551 7.434 16.741 17.881 20.811 29.25a75.75 75.75 0 0 1 1.275 3.988c5.644 19.563-.922 38.637-16.714 48.595z" fill="#FCFAFA" data-color="1"/>
        <path d="M93.084 155.463c-2.17 0-4.389-.129-6.661-.407-23.821-2.91-39.372-12.142-47.541-28.223-8.836-17.394-7.024-35.856 5.24-53.391 7.034-10.055 16.841-17.379 27.784-22.722 8.828-4.31 17.414-6.905 27.308-6.006 9.746.886 19.037 4.34 26.789 10.358 10.222 7.935 17.875 19.087 22.224 31.23.505 1.41.966 2.836 1.381 4.275 6.029 20.887-.98 41.245-17.858 51.865-9.889 6.219-22.921 13.021-38.666 13.021zm-4.581-98.227a24.774 24.774 0 0 0-4.044 1.281c-11.753 4.888-22.856 11.317-30.293 21.951-9.645 13.788-11.11 27.519-4.357 40.813 6.179 12.164 18.64 19.232 38.099 21.609 11.798 1.441 22.96-1.794 37.314-10.824 12.322-7.753 17.153-22.347 12.609-38.09-3.089-10.704-9.268-20.732-17.791-27.959-8.14-6.903-20.762-11.219-31.537-8.781z" fill="#1D1E21" data-color="2"/>
        <path d="M93.087 125.425c-2.955 0-5.957-.663-8.85-1.986-5.61-2.565-9.961-7.263-11.639-12.568-3.96-12.519.633-31.622 15.93-33.829 7.631-1.101 17.483-1.205 24.182 3.222 5.814 3.842 8.389 10.544 8.819 17.28 1.076 16.876-13.697 23.246-20.797 26.308a19.27 19.27 0 0 1-7.645 1.573zm-2.434-35.839c-2.611.98-4.821 2.605-6.044 4.965-2.018 3.897-1.608 8.566-.325 12.624.621 1.964 2.649 4.021 5.048 5.117 1.314.601 3.914 1.439 6.546.304 9.247-3.987 13.863-7.289 13.417-14.272-.223-3.488-1.166-7.073-4.649-8.559-3.862-1.647-9.516-1.861-13.993-.179z" fill="#1D1E21" data-color="2"/>
    </g>
</svg>